<?xml version="1.0" standalone="no"?>
<!DOCTYPE svg PUBLIC "-//W3C//DTD SVG 20010904//EN"
 "http://www.w3.org/TR/2001/REC-SVG-20010904/DTD/svg10.dtd">
<svg version="1.0" xmlns="http://www.w3.org/2000/svg"
 width="1000.000000pt" height="1000.000000pt" viewBox="0 0 1000.000000 1000.000000"
 preserveAspectRatio="xMidYMid meet">
<metadata>
Created by potrace 1.11, written by Peter Selinger 2001-2013
</metadata>
<g transform="translate(0.000000,1000.000000) scale(0.100000,-0.100000)"
fill="#000000" stroke="none">
<path d="M652 7320 l-22 -9 2 -248 3 -247 25 -7 c14 -4 426 -7 917 -8 985 -1
916 -6 928 62 9 47 2 439 -8 455 -6 9 -200 12 -915 11 -521 0 -917 -4 -930 -9z"/>
<path d="M4043 7318 c-22 -11 -22 -12 -25 -335 -3 -308 -4 -325 -22 -339 -17
-12 -115 -14 -604 -14 -383 0 -590 -4 -603 -10 -18 -10 -19 -29 -19 -690 0
-661 1 -680 19 -690 12 -6 132 -10 320 -10 299 0 300 0 315 22 14 19 16 73 16
385 0 317 2 364 16 377 14 14 50 16 287 14 l271 -3 7 -25 c4 -14 7 -190 8
-391 1 -325 3 -368 17 -373 9 -3 153 -6 320 -6 l304 0 10 26 c7 17 9 389 8
1040 -3 889 -5 1016 -18 1024 -21 14 -599 12 -627 -2z"/>
<path d="M5102 7314 c-22 -15 -22 -18 -22 -255 l0 -239 26 -10 c16 -6 325 -10
813 -10 664 0 790 2 807 14 18 14 19 28 19 256 0 203 -2 242 -15 250 -9 6
-327 10 -810 10 -704 0 -798 -2 -818 -16z"/>
<path d="M5920 6531 c-20 -4 -41 -11 -48 -15 -9 -5 -12 -74 -12 -266 0 -246 1
-260 19 -270 13 -6 165 -10 425 -10 l405 0 15 22 c14 19 16 62 16 268 0 137
-4 252 -10 260 -8 13 -64 15 -392 17 -211 1 -399 -2 -418 -6z"/>
<path d="M1300 6361 c-20 -4 -41 -11 -48 -15 -9 -5 -12 -135 -12 -551 0 -528
1 -545 19 -555 12 -6 129 -10 310 -10 319 0 314 -1 326 63 3 18 5 260 3 539
-2 399 -6 510 -16 520 -10 10 -76 13 -280 15 -147 1 -283 -2 -302 -6z"/>
<path d="M6928 6259 c-16 -9 -18 -32 -18 -250 l0 -239 26 -10 c15 -6 187 -10
418 -10 323 0 396 3 412 14 18 13 19 30 22 240 2 149 -1 232 -8 246 -10 20
-19 20 -423 20 -261 0 -418 -4 -429 -11z"/>
<path d="M5098 5739 c-16 -9 -18 -32 -18 -247 0 -172 3 -241 12 -250 9 -9 205
-12 819 -12 738 0 808 1 820 17 18 20 26 434 10 476 l-11 27 -807 0 c-530 -1
-814 -4 -825 -11z"/>
<path d="M5278 4829 c-17 -9 -18 -70 -18 -1045 0 -976 1 -1035 18 -1042 9 -4
144 -7 299 -7 218 0 285 3 295 13 10 10 14 162 15 755 3 741 3 742 24 760 19
15 51 17 344 17 288 0 324 -2 336 -17 12 -13 15 -151 19 -767 l5 -751 270 0
269 0 13 25 c10 20 13 236 12 1020 -1 547 -4 1006 -8 1020 l-7 25 -934 2
c-623 2 -941 -1 -952 -8z"/>
<path d="M7477 4828 c-15 -5 -29 -19 -32 -31 -3 -12 -4 -121 -3 -242 l3 -219
25 -13 c20 -10 214 -13 898 -13 859 0 872 0 892 20 19 19 20 33 20 249 0 195
-2 232 -16 245 -14 14 -107 16 -887 15 -557 0 -882 -4 -900 -11z"/>
<path d="M640 4810 c-20 -20 -20 -33 -20 -1029 0 -904 2 -1011 16 -1025 13
-14 53 -16 284 -16 256 0 270 1 280 19 7 13 10 265 10 749 0 704 1 731 19 753
l19 24 526 0 c457 0 528 -2 536 -15 6 -9 10 -306 10 -756 0 -623 2 -743 14
-760 13 -18 30 -19 247 -22 287 -4 295 -3 309 46 13 44 10 2020 -3 2040 -6 9
-241 12 -1118 12 -1096 0 -1109 0 -1129 -20z"/>
<path d="M3256 4814 c-14 -13 -16 -49 -16 -240 0 -136 4 -233 10 -245 10 -19
30 -19 825 -19 795 0 815 0 825 19 11 21 15 457 4 485 -6 14 -87 16 -819 16
-726 0 -815 -2 -829 -16z"/>
<path d="M4070 4043 c-38 -13 -40 -31 -40 -283 0 -197 3 -250 14 -266 14 -18
32 -19 420 -22 397 -3 406 -2 426 18 19 19 20 32 20 271 0 153 -4 258 -10 270
-10 18 -25 19 -413 18 -221 0 -409 -3 -417 -6z"/>
<path d="M8123 4040 l-23 -9 0 -265 c0 -252 1 -266 19 -276 12 -6 109 -10 245
-10 221 0 225 0 240 22 13 19 16 62 16 266 0 149 -4 251 -10 263 -10 18 -23
19 -238 18 -125 0 -237 -4 -249 -9z"/>
<path d="M1523 3860 l-23 -9 0 -551 0 -550 26 -10 c14 -6 122 -10 240 -10 201
0 215 1 234 20 20 20 20 33 20 558 0 405 -3 541 -12 550 -14 14 -450 16 -485
2z"/>
<path d="M3278 3253 c-10 -2 -20 -14 -23 -26 -3 -12 -4 -125 -3 -252 l3 -229
25 -7 c14 -4 377 -7 808 -8 769 -1 782 -1 802 19 19 19 20 33 20 246 0 136 -4
233 -10 245 -10 19 -29 19 -808 18 -438 -1 -805 -3 -814 -6z"/>
<path d="M7416 3244 c-14 -13 -16 -50 -16 -247 0 -129 5 -239 10 -247 8 -13
125 -15 932 -18 508 -1 933 0 945 3 37 9 45 66 41 294 -1 113 -7 212 -11 219
-6 9 -207 12 -947 12 -840 0 -940 -2 -954 -16z"/>
</g>
</svg>
